<?xml version="1.0" standalone="no"?><svg xmlns="http://www.w3.org/2000/svg" viewBox="0 0 1440 320"><path fill="#ffffff" fill-opacity="1" d="M0,128L30,128C60,128,120,128,180,144C240,160,300,192,360,170.7C420,149,480,75,540,64C600,53,660,107,720,138.7C780,171,840,181,900,202.7C960,224,1020,256,1080,229.3C1140,203,1200,117,1260,96C1320,75,1380,117,1410,138.7L1440,160L1440,0L1410,0C1380,0,1320,0,1260,0C1200,0,1140,0,1080,0C1020,0,960,0,900,0C840,0,780,0,720,0C660,0,600,0,540,0C480,0,420,0,360,0C300,0,240,0,180,0C120,0,60,0,30,0L0,0Z"></path></svg>